  0
SECTION
  2
HEADER
  9
$ACADVER
  1
AC1009
  9
$INSBASE
 10
0.0
 20
0.0
 30
0.0
  9
$EXTMIN
 10
-23.50001
 20
-11.800000000000001
 30
0.0
  9
$EXTMAX
 10
217.42341999999999
 20
113.4319
 30
0.0
  9
$LIMMIN
 10
0.0
 20
0.0
  9
$LIMMAX
 10
12.0
 20
9.0
  9
$ORTHOMODE
 70
     0
  9
$REGENMODE
 70
     1
  9
$FILLMODE
 70
     1
  9
$QTEXTMODE
 70
     0
  9
$MIRRTEXT
 70
     0
  9
$DRAGMODE
 70
     2
  9
$LTSCALE
 40
1.0
  9
$OSMODE
 70
    37
  9
$ATTMODE
 70
     1
  9
$TEXTSIZE
 40
0.2
  9
$TRACEWID
 40
0.05
  9
$TEXTSTYLE
  7
STANDARD
  9
$CLAYER
  8
0
  9
$CELTYPE
  6
CONTINUOUS
  9
$CECOLOR
 62
   256
  9
$DIMSCALE
 40
1.0
  9
$DIMASZ
 40
0.18
  9
$DIMEXO
 40
0.0625
  9
$DIMDLI
 40
0.38
  9
$DIMRND
 40
0.0
  9
$DIMDLE
 40
0.0
  9
$DIMEXE
 40
0.18
  9
$DIMTP
 40
0.0
  9
$DIMTM
 40
0.0
  9
$DIMTXT
 40
0.18
  9
$DIMCEN
 40
0.09
  9
$DIMTSZ
 40
0.0
  9
$DIMTOL
 70
     0
  9
$DIMLIM
 70
     0
  9
$DIMTIH
 70
     1
  9
$DIMTOH
 70
     1
  9
$DIMSE1
 70
     0
  9
$DIMSE2
 70
     0
  9
$DIMTAD
 70
     0
  9
$DIMZIN
 70
     0
  9
$DIMBLK
  1

  9
$DIMASO
 70
     1
  9
$DIMSHO
 70
     1
  9
$DIMPOST
  1

  9
$DIMAPOST
  1

  9
$DIMALT
 70
     0
  9
$DIMALTD
 70
     2
  9
$DIMALTF
 40
25.399999999999999
  9
$DIMLFAC
 40
1.0
  9
$DIMTOFL
 70
     0
  9
$DIMTVP
 40
0.0
  9
$DIMTIX
 70
     0
  9
$DIMSOXD
 70
     0
  9
$DIMSAH
 70
     0
  9
$DIMBLK1
  1

  9
$DIMBLK2
  1

  9
$DIMSTYLE
  2
STANDARD
  9
$DIMCLRD
 70
     0
  9
$DIMCLRE
 70
     0
  9
$DIMCLRT
 70
     0
  9
$DIMTFAC
 40
1.0
  9
$DIMGAP
 40
0.09
  9
$LUNITS
 70
     2
  9
$LUPREC
 70
     4
  9
$SKETCHINC
 40
0.1
  9
$FILLETRAD
 40
0.0
  9
$AUNITS
 70
     0
  9
$AUPREC
 70
     0
  9
$MENU
  1
.
  9
$ELEVATION
 40
0.0
  9
$PELEVATION
 40
0.0
  9
$THICKNESS
 40
0.0
  9
$LIMCHECK
 70
     0
  9
$BLIPMODE
 70
     0
  9
$CHAMFERA
 40
0.0
  9
$CHAMFERB
 40
0.0
  9
$SKPOLY
 70
     0
  9
$TDCREATE
 40
2452837.5912979171
  9
$TDUPDATE
 40
2452837.5915353699
  9
$TDINDWG
 40
0.0002376273
  9
$TDUSRTIMER
 40
0.0002376273
  9
$USRTIMER
 70
     1
  9
$ANGBASE
 50
0.0
  9
$ANGDIR
 70
     0
  9
$PDMODE
 70
     0
  9
$PDSIZE
 40
0.0
  9
$PLINEWID
 40
0.0
  9
$COORDS
 70
     2
  9
$SPLFRAME
 70
     0
  9
$SPLINETYPE
 70
     6
  9
$SPLINESEGS
 70
     8
  9
$ATTDIA
 70
     0
  9
$ATTREQ
 70
     1
  9
$HANDLING
 70
     1
  9
$HANDSEED
  5
112
  9
$SURFTAB1
 70
     6
  9
$SURFTAB2
 70
     6
  9
$SURFTYPE
 70
     6
  9
$SURFU
 70
     6
  9
$SURFV
 70
     6
  9
$UCSNAME
  2

  9
$UCSORG
 10
0.0
 20
0.0
 30
0.0
  9
$UCSXDIR
 10
1.0
 20
0.0
 30
0.0
  9
$UCSYDIR
 10
0.0
 20
1.0
 30
0.0
  9
$PUCSNAME
  2

  9
$PUCSORG
 10
0.0
 20
0.0
 30
0.0
  9
$PUCSXDIR
 10
1.0
 20
0.0
 30
0.0
  9
$PUCSYDIR
 10
0.0
 20
1.0
 30
0.0
  9
$USERI1
 70
     0
  9
$USERI2
 70
     0
  9
$USERI3
 70
     0
  9
$USERI4
 70
     0
  9
$USERI5
 70
     0
  9
$USERR1
 40
0.0
  9
$USERR2
 40
0.0
  9
$USERR3
 40
0.0
  9
$USERR4
 40
0.0
  9
$USERR5
 40
0.0
  9
$WORLDVIEW
 70
     1
  9
$SHADEDGE
 70
     3
  9
$SHADEDIF
 70
    70
  9
$TILEMODE
 70
     1
  9
$MAXACTVP
 70
    64
  9
$PLIMCHECK
 70
     0
  9
$PEXTMIN
 10
1.0000000000000000E+020
 20
1.0000000000000000E+020
 30
1.0000000000000000E+020
  9
$PEXTMAX
 10
-1.0000000000000000E+020
 20
-1.0000000000000000E+020
 30
-1.0000000000000000E+020
  9
$PLIMMIN
 10
0.0
 20
0.0
  9
$PLIMMAX
 10
12.0
 20
9.0
  9
$UNITMODE
 70
     0
  9
$VISRETAIN
 70
     1
  9
$PLINEGEN
 70
     0
  9
$PSLTSCALE
 70
     1
  0
ENDSEC
  0
SECTION
  2
TABLES
  0
TABLE
  2
VPORT
 70
     3
  0
VPORT
  2
*ACTIVE
 70
     0
 10
0.0
 20
0.0
 11
1.0
 21
1.0
 12
96.961704999999995
 22
50.815950000000001
 13
0.0
 23
0.0
 14
1.0
 24
1.0
 15
0.0
 25
0.0
 16
0.0
 26
0.0
 36
1.0
 17
0.0
 27
0.0
 37
0.0
 40
126.96993403312
 41
1.909456740442655
 42
50.0
 43
0.0
 44
0.0
 50
0.0
 51
0.0
 71
     0
 72
   100
 73
     1
 74
     1
 75
     0
 76
     0
 77
     0
 78
     0
  0
ENDTAB
  0
TABLE
  2
LTYPE
 70
     5
  0
LTYPE
  2
CONTINUOUS
 70
     0
  3
Solid line
 72
    65
 73
     0
 40
0.0
  0
LTYPE
  2
DASHED
 70
     0
  3
__ __ __ __ __ __ __ __ __ __ __ __ __ __ __
 72
    65
 73
     2
 40
3.5
 49
2.0
 49
-1.5
  0
LTYPE
  2
CENTER
 70
     0
  3
____ _ ____ _ ____ _ ____ _ ____ _ ____ _ ____
 72
    65
 73
     4
 40
17.5
 49
13.0
 49
-1.5
 49
1.5
 49
-1.5
  0
LTYPE
  2
PHANTOM
 70
     0
  3
_____ _ _ _____ _ _ _____ _ _ _____ _ _ ____  
 72
    65
 73
     6
 40
15.5
 49
8.0
 49
-1.5
 49
1.5
 49
-1.5
 49
1.5
 49
-1.5
  0
LTYPE
  2
DOT
 70
     0
  3
. . . . . . . . . . . . . . . . . . . . . . . .
 72
    65
 73
     2
 40
0.25
 49
0.0
 49
-0.25
  0
ENDTAB
  0
TABLE
  2
LAYER
 70
     1
  0
LAYER
  2
0
 70
     0
 62
     7
  6
CONTINUOUS
  0
ENDTAB
  0
TABLE
  2
STYLE
 70
     1
  0
STYLE
  2
STANDARD
 70
     0
 40
0.0
 41
1.0
 50
0.0
 71
     0
 42
0.2
  3
txt
  4
bigfont.shx
  0
ENDTAB
  0
TABLE
  2
VIEW
 70
     0
  0
ENDTAB
  0
TABLE
  2
UCS
 70
     0
  0
ENDTAB
  0
TABLE
  2
APPID
 70
     1
  0
APPID
  2
ACAD
 70
     0
  0
ENDTAB
  0
TABLE
  2
DIMSTYLE
 70
     1
  0
DIMSTYLE
  2
STANDARD
 70
     0
  3

  4

  5

  6

  7

 40
1.0
 41
0.18
 42
0.0625
 43
0.38
 44
0.18
 45
0.0
 46
0.0
 47
0.0
 48
0.0
140
0.18
141
0.09
142
0.0
143
25.399999999999999
144
1.0
145
0.0
146
1.0
147
0.09
 71
     0
 72
     0
 73
     1
 74
     1
 75
     0
 76
     0
 77
     0
 78
     0
170
     0
171
     2
172
     0
173
     0
174
     0
175
     0
176
     0
177
     0
178
     0
  0
ENDTAB
  0
ENDSEC
  0
SECTION
  2
BLOCKS
  0
BLOCK
  8
0
  2
$MODEL_SPACE
 70
     0
 10
0.0
 20
0.0
 30
0.0
  3
$MODEL_SPACE
  1

  0
ENDBLK
  5
22
  8
0
  0
BLOCK
 67
     1
  8
0
  2
$PAPER_SPACE
 70
     0
 10
0.0
 20
0.0
 30
0.0
  3
$PAPER_SPACE
  1

  0
ENDBLK
  5
1E
 67
     1
  8
0
  0
ENDSEC
  0
SECTION
  2
ENTITIES
  0
LINE
  5
2A
  8
0
  6
CONTINUOUS
 62
     7
 10
51.524993999999992
 20
97.431899999999999
 30
0.0
 11
103.22498
 21
97.431899999999999
 31
0.0
  0
LINE
  5
2B
  8
0
  6
CONTINUOUS
 62
     7
 10
51.524993999999992
 20
82.431899999999999
 30
0.0
 11
103.22498
 21
82.431899999999999
 31
0.0
  0
LINE
  5
2C
  8
0
  6
CONTINUOUS
 62
     7
 10
51.524993999999992
 20
97.431899999999999
 30
0.0
 11
51.524993999999992
 21
82.431899999999999
 31
0.0
  0
LINE
  5
2D
  8
0
  6
CONTINUOUS
 62
     7
 10
211.52498
 20
97.431899999999999
 30
0.0
 11
211.52498
 21
82.431899999999999
 31
0.0
  0
LINE
  5
2E
  8
0
  6
CENTER
 62
     7
 10
46.080291999999993
 20
89.931899999999999
 30
0.0
 11
217.42341999999999
 21
89.931899999999999
 31
0.0
  0
LINE
  5
2F
  8
0
  6
CONTINUOUS
 62
     7
 10
112.12497999999999
 20
113.4319
 30
0.0
 11
112.12497999999999
 21
66.431899999999999
 31
0.0
  0
LINE
  5
30
  8
0
  6
CONTINUOUS
 62
     7
 10
150.92499000000001
 20
113.4319
 30
0.0
 11
150.92499000000001
 21
66.431899999999999
 31
0.0
  0
LINE
  5
31
  8
0
  6
CONTINUOUS
 62
     7
 10
112.12497999999999
 20
113.4319
 30
0.0
 11
150.92499000000001
 21
113.4319
 31
0.0
  0
LINE
  5
32
  8
0
  6
CONTINUOUS
 62
     7
 10
112.12497999999999
 20
66.431899999999999
 30
0.0
 11
150.92499000000001
 21
66.431899999999999
 31
0.0
  0
LINE
  5
33
  8
0
  6
CENTER
 62
     7
 10
116.52498
 20
74.431899999999999
 30
0.0
 11
116.52498
 21
67.431899999999999
 31
0.0
  0
LINE
  5
34
  8
0
  6
CENTER
 62
     7
 10
113.02498
 20
70.931899999999985
 30
0.0
 11
120.02498
 21
70.931899999999985
 31
0.0
  0
LINE
  5
35
  8
0
  6
CENTER
 62
     7
 10
113.02498
 20
108.9319
 30
0.0
 11
120.02498
 21
108.9319
 31
0.0
  0
LINE
  5
36
  8
0
  6
CENTER
 62
     7
 10
116.52498
 20
112.4319
 30
0.0
 11
116.52498
 21
105.4319
 31
0.0
  0
LINE
  5
37
  8
0
  6
CENTER
 62
     7
 10
143.02498
 20
108.9319
 30
0.0
 11
150.02498
 21
108.9319
 31
0.0
  0
LINE
  5
38
  8
0
  6
CENTER
 62
     7
 10
146.52498
 20
112.4319
 30
0.0
 11
146.52498
 21
105.4319
 31
0.0
  0
LINE
  5
39
  8
0
  6
CENTER
 62
     7
 10
143.02498
 20
70.931899999999985
 30
0.0
 11
150.02498
 21
70.931899999999985
 31
0.0
  0
LINE
  5
3A
  8
0
  6
CENTER
 62
     7
 10
146.52498
 20
74.431899999999999
 30
0.0
 11
146.52498
 21
67.431899999999999
 31
0.0
  0
LINE
  5
3B
  8
0
  6
CONTINUOUS
 62
     7
 10
103.22498
 20
105.9319
 30
0.0
 11
103.22498
 21
73.931899999999999
 31
0.0
  0
LINE
  5
3C
  8
0
  6
CONTINUOUS
 62
     7
 10
159.82498000000001
 20
105.9319
 30
0.0
 11
159.82498000000001
 21
73.931899999999999
 31
0.0
  0
LINE
  5
3D
  8
0
  6
CONTINUOUS
 62
     7
 10
103.22498
 20
105.9319
 30
0.0
 11
112.12497999999999
 21
105.9319
 31
0.0
  0
LINE
  5
3E
  8
0
  6
CONTINUOUS
 62
     7
 10
103.22498
 20
73.931899999999999
 30
0.0
 11
112.12497999999999
 21
73.931899999999999
 31
0.0
  0
LINE
  5
3F
  8
0
  6
CONTINUOUS
 62
     7
 10
150.92499000000001
 20
105.9319
 30
0.0
 11
159.82498000000001
 21
105.9319
 31
0.0
  0
LINE
  5
40
  8
0
  6
CONTINUOUS
 62
     7
 10
150.92499000000001
 20
73.931899999999999
 30
0.0
 11
159.82498000000001
 21
73.931899999999999
 31
0.0
  0
LINE
  5
41
  8
0
  6
CONTINUOUS
 62
     7
 10
159.82498000000001
 20
97.431899999999999
 30
0.0
 11
211.52498
 21
97.431899999999999
 31
0.0
  0
LINE
  5
42
  8
0
  6
CONTINUOUS
 62
     7
 10
159.82498000000001
 20
82.431899999999999
 30
0.0
 11
211.52498
 21
82.431899999999999
 31
0.0
  0
LINE
  5
43
  8
0
  6
CENTER
 62
     7
 10
71.524993999999992
 20
94.681899999999985
 30
0.0
 11
71.524993999999992
 21
85.181899999999999
 31
0.0
  0
LINE
  5
44
  8
0
  6
CENTER
 62
     7
 10
131.52498
 20
94.681899999999985
 30
0.0
 11
131.52498
 21
85.181899999999999
 31
0.0
  0
LINE
  5
45
  8
0
  6
CENTER
 62
     7
 10
191.52498
 20
94.681899999999985
 30
0.0
 11
191.52498
 21
85.181899999999999
 31
0.0
  0
LINE
  5
46
  8
0
  6
CONTINUOUS
 62
     7
 10
51.524993999999992
 20
95.281906000000006
 30
0.0
 11
103.22498
 21
95.281906000000006
 31
0.0
  0
LINE
  5
47
  8
0
  6
CONTINUOUS
 62
     7
 10
51.524993999999992
 20
84.581908999999996
 30
0.0
 11
103.22498
 21
84.581908999999996
 31
0.0
  0
LINE
  5
48
  8
0
  6
CONTINUOUS
 62
     7
 10
159.82498000000001
 20
95.281906000000006
 30
0.0
 11
211.52498
 21
95.281906000000006
 31
0.0
  0
LINE
  5
49
  8
0
  6
CONTINUOUS
 62
     7
 10
159.82498000000001
 20
84.581908999999996
 30
0.0
 11
211.52498
 21
84.581908999999996
 31
0.0
  0
LINE
  5
4A
  8
0
  6
CONTINUOUS
 62
     7
 10
112.12497999999999
 20
102.94190999999999
 30
0.0
 11
150.92499000000001
 21
102.94190999999999
 31
0.0
  0
LINE
  5
4B
  8
0
  6
CONTINUOUS
 62
     7
 10
112.12497999999999
 20
94.941909999999979
 30
0.0
 11
150.92499000000001
 21
94.941909999999979
 31
0.0
  0
LINE
  5
4C
  8
0
  6
CONTINUOUS
 62
     7
 10
112.12497999999999
 20
84.941909999999979
 30
0.0
 11
150.92499000000001
 21
84.941909999999979
 31
0.0
  0
LINE
  5
4D
  8
0
  6
CONTINUOUS
 62
     7
 10
112.12497999999999
 20
76.941909999999993
 30
0.0
 11
150.92499000000001
 21
76.941909999999993
 31
0.0
  0
LINE
  5
4E
  8
0
  6
CONTINUOUS
 62
     7
 10
150.15497999999999
 20
23.999991999999999
 30
0.0
 11
150.92499000000001
 21
23.229994000000001
 31
0.0
  0
LINE
  5
4F
  8
0
  6
CONTINUOUS
 62
     7
 10
159.82498000000001
 20
15.0
 30
0.0
 11
211.52498
 21
15.0
 31
0.0
  0
LINE
  5
50
  8
0
  6
DASHED
 62
     7
 10
69.274993999999992
 20
9.6999969000000004
 30
0.0
 11
69.274993999999992
 21
0.0
 31
0.0
  0
LINE
  5
51
  8
0
  6
DASHED
 62
     7
 10
67.774993999999992
 20
15.0
 30
0.0
 11
67.774993999999992
 21
9.6999969000000004
 31
0.0
  0
LINE
  5
52
  8
0
  6
DASHED
 62
     7
 10
73.774993999999992
 20
9.6999969000000004
 30
0.0
 11
73.774993999999992
 21
0.0
 31
0.0
  0
LINE
  5
53
  8
0
  6
DASHED
 62
     7
 10
67.774993999999992
 20
9.6999969000000004
 30
0.0
 11
75.274993999999992
 21
9.6999969000000004
 31
0.0
  0
LINE
  5
54
  8
0
  6
DASHED
 62
     7
 10
75.274993999999992
 20
15.0
 30
0.0
 11
75.274993999999992
 21
9.6999969000000004
 31
0.0
  0
LINE
  5
55
  8
0
  6
CONTINUOUS
 62
     7
 10
159.82498000000001
 20
12.849990999999999
 30
0.0
 11
211.52498
 21
12.849990999999999
 31
0.0
  0
LINE
  5
56
  8
0
  6
CONTINUOUS
 62
     7
 10
159.82498000000001
 20
11.539993000000001
 30
0.0
 11
211.52498
 21
11.539993000000001
 31
0.0
  0
LINE
  5
57
  8
0
  6
CONTINUOUS
 62
     7
 10
159.82498000000001
 20
8.839996300000001
 30
0.0
 11
211.52498
 21
8.839996300000001
 31
0.0
  0
LINE
  5
58
  8
0
  6
CONTINUOUS
 62
     7
 10
159.82498000000001
 20
6.8999939000000001
 30
0.0
 11
211.52498
 21
6.8999939000000001
 31
0.0
  0
LINE
  5
59
  8
0
  6
CENTER
 62
     7
 10
131.52498
 20
9.9185943999999981
 30
0.0
 11
131.52498
 21
-2.476760899999999
 31
0.0
  0
LINE
  5
5A
  8
0
  6
CENTER
 62
     7
 10
71.524993999999992
 20
17.822555999999999
 30
0.0
 11
71.524993999999992
 21
-2.3465576000000001
 31
0.0
  0
LINE
  5
5B
  8
0
  6
CONTINUOUS
 62
     7
 10
51.524993999999992
 20
15.0
 30
0.0
 11
51.524993999999992
 21
0.0
 31
0.0
  0
LINE
  5
5C
  8
0
  6
CONTINUOUS
 62
     7
 10
51.524993999999992
 20
4.1999969000000004
 30
0.0
 11
211.52498
 21
4.1999969000000004
 31
0.0
  0
LINE
  5
5D
  8
0
  6
CONTINUOUS
 62
     7
 10
51.524993999999992
 20
8.839996300000001
 30
0.0
 11
103.22498
 21
8.839996300000001
 31
0.0
  0
LINE
  5
5E
  8
0
  6
CONTINUOUS
 62
     7
 10
51.524993999999992
 20
6.8999939000000001
 30
0.0
 11
103.22498
 21
6.8999939000000001
 31
0.0
  0
LINE
  5
5F
  8
0
  6
CONTINUOUS
 62
     7
 10
51.524993999999992
 20
11.539993000000001
 30
0.0
 11
103.22498
 21
11.539993000000001
 31
0.0
  0
LINE
  5
60
  8
0
  6
CONTINUOUS
 62
     7
 10
51.524993999999992
 20
12.849990999999999
 30
0.0
 11
103.22498
 21
12.849990999999999
 31
0.0
  0
LINE
  5
61
  8
0
  6
CONTINUOUS
 62
     7
 10
51.524993999999992
 20
15.0
 30
0.0
 11
103.22498
 21
15.0
 31
0.0
  0
LINE
  5
62
  8
0
  6
CONTINUOUS
 62
     7
 10
51.524993999999992
 20
0.69999695
 30
0.0
 11
211.52498
 21
0.69999695
 31
0.0
  0
LINE
  5
63
  8
0
  6
CONTINUOUS
 62
     7
 10
51.524993999999992
 20
0.0
 30
0.0
 11
211.52498
 21
0.0
 31
0.0
  0
LINE
  5
64
  8
0
  6
CONTINUOUS
 62
     7
 10
-23.5
 20
23.139983999999998
 30
0.0
 11
-23.5
 21
17.0
 31
0.0
  0
LINE
  5
65
  8
0
  6
CONTINUOUS
 62
     7
 10
7.5000185999999989
 20
0.7000113100000001
 30
0.0
 11
6.8000220999999978
 21
0.000014886266
 31
0.0
  0
LINE
  5
66
  8
0
  6
CONTINUOUS
 62
     7
 10
-7.4999766000000001
 20
0.6999940900000001
 30
0.0
 11
-6.7999907000000004
 21
0.0000084799467
 31
0.0
  0
LINE
  5
67
  8
0
  6
CONTINUOUS
 62
     7
 10
4.8000182999999987
 20
8.839996300000001
 30
0.0
 11
4.8000182999999987
 21
6.8999939000000001
 31
0.0
  0
LINE
  5
68
  8
0
  6
CONTINUOUS
 62
     7
 10
5.3500246999999996
 20
14.999995
 30
0.0
 11
5.7559724000000001
 21
14.594048000000001
 31
0.0
  0
LINE
  5
69
  8
0
  6
CONTINUOUS
 62
     7
 10
-7.5
 20
4.1999969000000004
 30
0.0
 11
-7.5
 21
0.69999695
 31
0.0
  0
LINE
  5
6A
  8
0
  6
CONTINUOUS
 62
     7
 10
-7.0815286999999989
 20
13.268438
 30
0.0
 11
-7.4999703999999987
 21
12.849997
 31
0.0
  0
LINE
  5
6B
  8
0
  6
CONTINUOUS
 62
     7
 10
-7.4999814000000002
 20
11.539999999999999
 30
0.0
 11
-7.0942925999999993
 21
11.134311
 31
0.0
  0
LINE
  5
6C
  8
0
  6
CONTINUOUS
 62
     7
 10
7.5000342999999994
 20
4.1999902999999987
 30
0.0
 11
4.8000249999999989
 21
6.8999996000000001
 31
0.0
  0
LINE
  5
6D
  8
0
  6
CONTINUOUS
 62
     7
 10
-4.7999877999999994
 20
8.839996300000001
 30
0.0
 11
-4.7999877999999994
 21
6.8999939000000001
 31
0.0
  0
LINE
  5
6E
  8
0
  6
CONTINUOUS
 62
     7
 10
-5.3499717999999996
 20
14.999995
 30
0.0
 11
-5.7559085000000003
 21
14.594059
 31
0.0
  0
LINE
  5
6F
  8
0
  6
CONTINUOUS
 62
     7
 10
-5.7541604
 20
9.7941789999999997
 30
0.0
 11
-4.7999720999999989
 21
8.8399906000000001
 31
0.0
  0
LINE
  5
70
  8
0
  6
CONTINUOUS
 62
     7
 10
-7.4999814000000002
 20
4.2000121999999998
 30
0.0
 11
-4.7999830000000001
 21
6.900010599999999
 31
0.0
  0
LINE
  5
71
  8
0
  6
CONTINUOUS
 62
     7
 10
7.5
 20
4.1999969000000004
 30
0.0
 11
7.5
 21
0.69999695
 31
0.0
  0
LINE
  5
72
  8
0
  6
CONTINUOUS
 62
     7
 10
-7.5
 20
12.849990999999999
 30
0.0
 11
-7.5
 21
11.539993000000001
 31
0.0
  0
LINE
  5
73
  8
0
  6
CENTER
 62
     7
 10
0.0
 20
26.387450999999999
 30
0.0
 11
0.0
 21
-1.2505034999999991
 31
0.0
  0
LINE
  5
74
  8
0
  6
CONTINUOUS
 62
     7
 10
7.500023399999999
 20
11.540010000000001
 30
0.0
 11
7.094334599999998
 21
11.134321
 31
0.0
  0
LINE
  5
75
  8
0
  6
CONTINUOUS
 62
     7
 10
7.081581599999998
 20
13.268438
 30
0.0
 11
7.500023399999999
 21
12.849997
 31
0.0
  0
LINE
  5
76
  8
0
  6
CENTER
 62
     7
 10
-19.0
 20
26.619903999999998
 30
0.0
 11
-19.0
 21
11.260605
 31
0.0
  0
LINE
  5
77
  8
0
  6
CONTINUOUS
 62
     7
 10
-6.6999816999999986
 20
8.1887206999999993
 30
0.0
 11
-6.6999816999999986
 21
7.8112639999999987
 31
0.0
  0
LINE
  5
78
  8
0
  6
CONTINUOUS
 62
     7
 10
112.12497999999999
 20
4.6999969000000004
 30
0.0
 11
103.22498
 21
4.6999969000000004
 31
0.0
  0
LINE
  5
79
  8
0
  6
CONTINUOUS
 62
     7
 10
14.500031
 20
4.6999969000000004
 30
0.0
 11
11.600006
 21
4.6999969000000004
 31
0.0
  0
LINE
  5
7A
  8
0
  6
CONTINUOUS
 62
     7
 10
112.12497999999999
 20
23.5
 30
0.0
 11
103.22498
 21
23.5
 31
0.0
  0
LINE
  5
7B
  8
0
  6
CENTER
 62
     7
 10
19.0
 20
26.619903999999998
 30
0.0
 11
19.0
 21
11.260605
 31
0.0
  0
LINE
  5
7C
  8
0
  6
CENTER
 62
     7
 10
116.52498
 20
26.619903999999998
 30
0.0
 11
116.52498
 21
5.9250640999999993
 31
0.0
  0
LINE
  5
7D
  8
0
  6
DASHED
 62
     7
 10
-21.5
 20
23.999496000000001
 30
0.0
 11
-21.5
 21
13.0
 31
0.0
  0
LINE
  5
7E
  8
0
  6
DASHED
 62
     7
 10
-16.5
 20
23.999496000000001
 30
0.0
 11
-16.5
 21
13.0
 31
0.0
  0
LINE
  5
7F
  8
0
  6
DASHED
 62
     7
 10
-16.0
 20
13.0
 30
0.0
 11
-16.0
 21
7.7089232999999986
 31
0.0
  0
LINE
  5
80
  8
0
  6
DASHED
 62
     7
 10
-18.634063999999999
 20
13.0
 30
0.0
 11
-16.0
 21
13.0
 31
0.0
  0
LINE
  5
81
  8
0
  6
DASHED
 62
     7
 10
-21.149994
 20
24.0
 30
0.0
 11
-21.149994
 21
13.0
 31
0.0
  0
LINE
  5
82
  8
0
  6
DASHED
 62
     7
 10
-16.849976000000002
 20
23.999496000000001
 30
0.0
 11
-16.849976000000002
 21
13.0
 31
0.0
  0
LINE
  5
83
  8
0
  6
DASHED
 62
     7
 10
118.67498999999999
 20
23.999496000000001
 30
0.0
 11
118.67498999999999
 21
13.0
 31
0.0
  0
LINE
  5
84
  8
0
  6
DASHED
 62
     7
 10
114.37497999999999
 20
23.999496000000001
 30
0.0
 11
114.37497999999999
 21
13.0
 31
0.0
  0
LINE
  5
85
  8
0
  6
DASHED
 62
     7
 10
119.02498
 20
23.999496000000001
 30
0.0
 11
119.02498
 21
13.0
 31
0.0
  0
LINE
  5
86
  8
0
  6
DASHED
 62
     7
 10
114.02498
 20
23.999496000000001
 30
0.0
 11
114.02498
 21
13.0
 31
0.0
  0
LINE
  5
87
  8
0
  6
CONTINUOUS
 62
     7
 10
114.64164
 20
11.479457
 30
0.0
 11
115.09486
 21
8.9091082000000004
 31
0.0
  0
LINE
  5
88
  8
0
  6
CONTINUOUS
 62
     7
 10
117.9551
 20
8.9091176999999995
 30
0.0
 11
118.40832
 21
11.479459
 31
0.0
  0
LINE
  5
89
  8
0
  6
CONTINUOUS
 62
     7
 10
147.95509000000001
 20
8.9091120000000004
 30
0.0
 11
148.40833000000001
 21
11.479452999999999
 31
0.0
  0
LINE
  5
8A
  8
0
  6
CONTINUOUS
 62
     7
 10
144.64165
 20
11.479462
 30
0.0
 11
145.09487999999999
 21
8.9091129000000002
 31
0.0
  0
LINE
  5
8B
  8
0
  6
CENTER
 62
     7
 10
146.52498
 20
26.489899000000001
 30
0.0
 11
146.52498
 21
5.7950591999999999
 31
0.0
  0
LINE
  5
8C
  8
0
  6
CONTINUOUS
 62
     7
 10
112.89499000000001
 20
24.0
 30
0.0
 11
150.15497999999999
 21
24.0
 31
0.0
  0
LINE
  5
8D
  8
0
  6
CONTINUOUS
 62
     7
 10
-22.639953999999999
 20
24.0
 30
0.0
 11
-13.380005000000001
 21
24.0
 31
0.0
  0
LINE
  5
8E
  8
0
  6
CONTINUOUS
 62
     7
 10
-4.6400145999999989
 20
24.0
 30
0.0
 11
4.6199950999999988
 21
24.0
 31
0.0
  0
LINE
  5
8F
  8
0
  6
CONTINUOUS
 62
     7
 10
-23.50001
 20
16.999998000000001
 30
0.0
 11
-22.990006999999999
 21
16.489995999999991
 31
0.0
  0
LINE
  5
90
  8
0
  6
CONTINUOUS
 62
     7
 10
22.989989999999999
 20
16.489989999999999
 30
0.0
 11
22.989989999999999
 21
14.0
 31
0.0
  0
LINE
  5
91
  8
0
  6
CONTINUOUS
 62
     7
 10
100.72498
 20
16.699997
 30
0.0
 11
101.72498
 21
16.699997
 31
0.0
  0
LINE
  5
92
  8
0
  6
CONTINUOUS
 62
     7
 10
15.0
 20
5.2000102999999989
 30
0.0
 11
14.499999000000001
 21
4.7000098000000001
 31
0.0
  0
LINE
  5
93
  8
0
  6
CONTINUOUS
 62
     7
 10
5.7542023999999996
 20
9.7941894999999999
 30
0.0
 11
4.800014
 21
8.8400011000000003
 31
0.0
  0
LINE
  5
94
  8
0
  6
CONTINUOUS
 62
     7
 10
-9.3112411000000002
 20
5.2000022000000001
 30
0.0
 11
-6.6999763999999997
 21
7.8112674000000002
 31
0.0
  0
LINE
  5
95
  8
0
  6
CONTINUOUS
 62
     7
 10
9.5000361999999985
 20
10.988716
 30
0.0
 11
6.7000399000000002
 21
8.1887197
 31
0.0
  0
LINE
  5
96
  8
0
  6
CONTINUOUS
 62
     7
 10
2.6024169999999991
 20
17.0
 30
0.0
 11
6.0362853999999997
 21
17.0
 31
0.0
  0
LINE
  5
97
  8
0
  6
CONTINUOUS
 62
     7
 10
-5.3499755999999987
 20
15.0
 30
0.0
 11
5.3500060999999981
 21
15.0
 31
0.0
  0
LINE
  5
98
  8
0
  6
CONTINUOUS
 62
     7
 10
-14.5
 20
4.6999969000000004
 30
0.0
 11
-11.599976
 21
4.6999969000000004
 31
0.0
  0
LINE
  5
99
  8
0
  6
CONTINUOUS
 62
     7
 10
9.3113154999999992
 20
5.1999807000000002
 30
0.0
 11
6.7000399000000002
 21
7.8112563999999987
 31
0.0
  0
LINE
  5
9A
  8
0
  6
CENTER
 62
     7
 10
13.972778
 20
21.5
 30
0.0
 11
10.817017
 21
21.5
 31
0.0
  0
LINE
  5
9B
  8
0
  6
DASHED
 62
     7
 10
-2.25
 20
9.6999969000000004
 30
0.0
 11
-2.25
 21
0.0
 31
0.0
  0
LINE
  5
9C
  8
0
  6
CONTINUOUS
 62
     7
 10
-15.999965
 20
6.1999779000000004
 30
0.0
 11
-14.999962999999999
 21
5.1999769000000002
 31
0.0
  0
LINE
  5
9D
  8
0
  6
CENTER
 62
     7
 10
12.500031
 20
22.923812999999999
 30
0.0
 11
12.500031
 21
19.716308999999999
 31
0.0
  0
LINE
  5
9E
  8
0
  6
CONTINUOUS
 62
     7
 10
100.72498
 20
22.699997
 30
0.0
 11
101.72498
 21
22.699997
 31
0.0
  0
LINE
  5
9F
  8
0
  6
CONTINUOUS
 62
     7
 10
-14.5
 20
23.5
 30
0.0
 11
14.5
 21
23.5
 31
0.0
  0
LINE
  5
A0
  8
0
  6
CONTINUOUS
 62
     7
 10
-15.0
 20
5.1999969000000004
 30
0.0
 11
-6.5
 21
5.1999969000000004
 31
0.0
  0
LINE
  5
A1
  8
0
  6
CONTINUOUS
 62
     7
 10
-14.999962999999999
 20
5.1999769000000002
 30
0.0
 11
-14.499973000000001
 21
4.6999874000000004
 31
0.0
  0
LINE
  5
A2
  8
0
  6
CONTINUOUS
 62
     7
 10
-6.7999877999999994
 20
0.0
 30
0.0
 11
6.8000182999999996
 21
0.0
 31
0.0
  0
LINE
  5
A3
  8
0
  6
CONTINUOUS
 62
     7
 10
-6.0362549000000003
 20
17.0
 30
0.0
 11
-2.6023865000000002
 21
17.0
 31
0.0
  0
LINE
  5
A4
  8
0
  6
CONTINUOUS
 62
     7
 10
9.5000257000000001
 20
13.536258
 30
0.0
 11
6.0363072999999989
 21
16.999974999999999
 31
0.0
  0
LINE
  5
A5
  8
0
  6
CONTINUOUS
 62
     7
 10
-9.4999733000000006
 20
13.536258999999999
 30
0.0
 11
-6.0362444000000002
 21
16.999988999999999
 31
0.0
  0
LINE
  5
A6
  8
0
  6
CENTER
 62
     7
 10
-13.972747999999999
 20
21.5
 30
0.0
 11
-10.816986
 21
21.5
 31
0.0
  0
LINE
  5
A7
  8
0
  6
CENTER
 62
     7
 10
-12.5
 20
22.923812999999999
 30
0.0
 11
-12.5
 21
19.716308999999999
 31
0.0
  0
LINE
  5
A8
  8
0
  6
CONTINUOUS
 62
     7
 10
9.5
 20
13.53627
 30
0.0
 11
9.5
 21
10.988723999999999
 31
0.0
  0
LINE
  5
A9
  8
0
  6
CONTINUOUS
 62
     7
 10
-9.5
 20
13.53627
 30
0.0
 11
-9.5
 21
10.988723999999999
 31
0.0
  0
LINE
  5
AA
  8
0
  6
CONTINUOUS
 62
     7
 10
6.7000121999999998
 20
8.1887206999999993
 30
0.0
 11
6.7000121999999998
 21
7.8112639999999987
 31
0.0
  0
LINE
  5
AB
  8
0
  6
CONTINUOUS
 62
     7
 10
16.0
 20
22.0
 30
0.0
 11
16.0
 21
6.1999969000000004
 31
0.0
  0
LINE
  5
AC
  8
0
  6
CONTINUOUS
 62
     7
 10
15.0
 20
5.1999969000000004
 30
0.0
 11
6.5000305000000003
 21
5.1999969000000004
 31
0.0
  0
LINE
  5
AD
  8
0
  6
CONTINUOUS
 62
     7
 10
100.72498
 20
22.699997
 30
0.0
 11
100.72498
 21
16.699997
 31
0.0
  0
LINE
  5
AE
  8
0
  6
CONTINUOUS
 62
     7
 10
-14.499973000000001
 20
23.49999
 30
0.0
 11
-15.999974999999999
 21
21.999988999999999
 31
0.0
  0
LINE
  5
AF
  8
0
  6
CONTINUOUS
 62
     7
 10
7.5
 20
12.849990999999999
 30
0.0
 11
7.5
 21
11.539993000000001
 31
0.0
  0
LINE
  5
B0
  8
0
  6
CONTINUOUS
 62
     7
 10
16.000001999999999
 20
6.200011299999999
 30
0.0
 11
15.0
 21
5.2000102999999989
 31
0.0
  0
LINE
  5
B1
  8
0
  6
CONTINUOUS
 62
     7
 10
14.500022
 20
23.499991999999999
 30
0.0
 11
16.000012999999999
 21
22.000001999999999
 31
0.0
  0
LINE
  5
B2
  8
0
  6
DASHED
 62
     7
 10
-3.75
 20
15.0
 30
0.0
 11
-3.75
 21
9.6999969000000004
 31
0.0
  0
LINE
  5
B3
  8
0
  6
DASHED
 62
     7
 10
2.25
 20
9.6999969000000004
 30
0.0
 11
2.25
 21
0.0
 31
0.0
  0
LINE
  5
B4
  8
0
  6
CONTINUOUS
 62
     7
 10
150.92499000000001
 20
23.5
 30
0.0
 11
159.82498000000001
 21
23.5
 31
0.0
  0
LINE
  5
B5
  8
0
  6
CONTINUOUS
 62
     7
 10
150.92499000000001
 20
23.5
 30
0.0
 11
150.92499000000001
 21
4.6999969000000004
 31
0.0
  0
LINE
  5
B6
  8
0
  6
CONTINUOUS
 62
     7
 10
150.92499000000001
 20
4.6999969000000004
 30
0.0
 11
159.82498000000001
 21
4.6999969000000004
 31
0.0
  0
LINE
  5
B7
  8
0
  6
CONTINUOUS
 62
     7
 10
11.600006
 20
5.1999969000000004
 30
0.0
 11
11.600006
 21
4.6999969000000004
 31
0.0
  0
LINE
  5
B8
  8
0
  6
CONTINUOUS
 62
     7
 10
-11.599976
 20
5.1999969000000004
 30
0.0
 11
-11.599976
 21
4.6999969000000004
 31
0.0
  0
LINE
  5
B9
  8
0
  6
DASHED
 62
     7
 10
-3.75
 20
9.6999969000000004
 30
0.0
 11
3.75
 21
9.6999969000000004
 31
0.0
  0
LINE
  5
BA
  8
0
  6
DASHED
 62
     7
 10
3.75
 20
15.0
 30
0.0
 11
3.75
 21
9.6999969000000004
 31
0.0
  0
LINE
  5
BB
  8
0
  6
CONTINUOUS
 62
     7
 10
103.22498
 20
23.5
 30
0.0
 11
103.22498
 21
4.6999969000000004
 31
0.0
  0
LINE
  5
BC
  8
0
  6
CONTINUOUS
 62
     7
 10
159.82498000000001
 20
23.5
 30
0.0
 11
159.82498000000001
 21
4.6999969000000004
 31
0.0
  0
LINE
  5
BD
  8
0
  6
CONTINUOUS
 62
     7
 10
23.5
 20
23.120010000000001
 30
0.0
 11
23.5
 21
17.0
 31
0.0
  0
LINE
  5
BE
  8
0
  6
CONTINUOUS
 62
     7
 10
-13.010009999999999
 20
23.629989999999999
 30
0.0
 11
-5.0100097999999988
 21
23.629989999999999
 31
0.0
  0
LINE
  5
BF
  8
0
  6
CONTINUOUS
 62
     7
 10
-16.641507999999991
 20
11.347300000000001
 30
0.0
 11
-15.999964
 21
7.7089237999999991
 31
0.0
  0
LINE
  5
C0
  8
0
  6
CONTINUOUS
 62
     7
 10
13.359985
 20
24.0
 30
0.0
 11
22.620025999999999
 21
24.0
 31
0.0
  0
LINE
  5
C1
  8
0
  6
CONTINUOUS
 62
     7
 10
22.620021999999999
 20
23.999991999999999
 30
0.0
 11
23.5
 21
23.120014000000001
 31
0.0
  0
LINE
  5
C2
  8
0
  6
CONTINUOUS
 62
     7
 10
-22.639966999999999
 20
24.000001999999999
 30
0.0
 11
-23.499995999999999
 21
23.139975
 31
0.0
  0
LINE
  5
C3
  8
0
  6
CONTINUOUS
 62
     7
 10
18.591156000000002
 20
13.0
 30
0.0
 11
21.989989999999999
 21
13.0
 31
0.0
  0
LINE
  5
C4
  8
0
  6
CONTINUOUS
 62
     7
 10
4.9899902000000003
 20
23.629989999999999
 30
0.0
 11
12.989990000000001
 21
23.629989999999999
 31
0.0
  0
LINE
  5
C5
  8
0
  6
CONTINUOUS
 62
     7
 10
-21.989989999999999
 20
13.0
 30
0.0
 11
-18.611145
 21
13.0
 31
0.0
  0
LINE
  5
C6
  8
0
  6
CONTINUOUS
 62
     7
 10
16.000001999999999
 20
7.8223577000000004
 30
0.0
 11
16.621544
 21
11.347295000000001
 31
0.0
  0
LINE
  5
C7
  8
0
  6
CONTINUOUS
 62
     7
 10
-9.4999619000000006
 20
10.988716
 30
0.0
 11
-6.6999544999999987
 21
8.1887092999999993
 31
0.0
  0
LINE
  5
C8
  8
0
  6
CONTINUOUS
 62
     7
 10
112.12497999999999
 20
4.9299926999999997
 30
0.0
 11
150.92499000000001
 21
4.9299926999999997
 31
0.0
  0
LINE
  5
C9
  8
0
  6
CONTINUOUS
 62
     7
 10
112.12497999999999
 20
13.0
 30
0.0
 11
150.92499000000001
 21
13.0
 31
0.0
  0
LINE
  5
CA
  8
0
  6
CONTINUOUS
 62
     7
 10
112.12497999999999
 20
23.5
 30
0.0
 11
112.12497999999999
 21
4.6999969000000004
 31
0.0
  0
LINE
  5
CB
  8
0
  6
CONTINUOUS
 62
     7
 10
112.895
 20
23.999991999999999
 30
0.0
 11
112.12499
 21
23.229982
 31
0.0
  0
LINE
  5
CC
  8
0
  6
CONTINUOUS
 62
     7
 10
112.12497999999999
 20
16.489989999999999
 30
0.0
 11
150.92499000000001
 21
16.489989999999999
 31
0.0
  0
LINE
  5
CD
  8
0
  6
CONTINUOUS
 62
     7
 10
112.12497999999999
 20
17.0
 30
0.0
 11
150.92499000000001
 21
17.0
 31
0.0
  0
LINE
  5
CE
  8
0
  6
CONTINUOUS
 62
     7
 10
101.72498
 20
23.449997
 30
0.0
 11
101.72498
 21
15.949997
 31
0.0
  0
LINE
  5
CF
  8
0
  6
CONTINUOUS
 62
     7
 10
101.72498
 20
15.949997
 30
0.0
 11
103.22498
 21
15.949997
 31
0.0
  0
LINE
  5
D0
  8
0
  6
CONTINUOUS
 62
     7
 10
101.72498
 20
23.449997
 30
0.0
 11
103.22498
 21
23.449997
 31
0.0
  0
LINE
  5
D1
  8
0
  6
CENTER
 62
     7
 10
96.224975999999998
 20
19.699997
 30
0.0
 11
104.07323
 21
19.699997
 31
0.0
  0
LINE
  5
D2
  8
0
  6
CENTER
 62
     7
 10
-4.75
 20
19.699997
 30
0.0
 11
4.75
 21
19.699997
 31
0.0
  0
LINE
  5
D3
  8
0
  6
CONTINUOUS
 62
     7
 10
-13.380001999999999
 20
24.00001
 30
0.0
 11
-13.010005
 21
23.630013000000002
 31
0.0
  0
LINE
  5
D4
  8
0
  6
CONTINUOUS
 62
     7
 10
-5.0100068999999996
 20
23.630001
 30
0.0
 11
-4.6400050999999989
 21
24.000004000000001
 31
0.0
  0
LINE
  5
D5
  8
0
  6
CONTINUOUS
 62
     7
 10
4.9899855000000004
 20
23.630011
 30
0.0
 11
4.6199889000000001
 21
24.000008000000001
 31
0.0
  0
LINE
  5
D6
  8
0
  6
CONTINUOUS
 62
     7
 10
12.989986
 20
23.630018
 30
0.0
 11
13.359983
 21
24.000012999999999
 31
0.0
  0
LINE
  5
D7
  8
0
  6
CONTINUOUS
 62
     7
 10
-22.989989999999999
 20
16.489989999999999
 30
0.0
 11
-22.989989999999999
 21
14.0
 31
0.0
  0
LINE
  5
D8
  8
0
  6
CONTINUOUS
 62
     7
 10
22.990010999999999
 20
16.489989999999999
 30
0.0
 11
23.500008000000001
 21
16.999987000000001
 31
0.0
  0
LINE
  5
D9
  8
0
  6
CONTINUOUS
 62
     7
 10
211.52498
 20
15.0
 30
0.0
 11
211.52498
 21
0.0
 31
0.0
  0
LINE
  5
DA
  8
0
  6
CENTER
 62
     7
 10
191.52499
 20
17.822555999999999
 30
0.0
 11
191.52499
 21
-2.3465576000000001
 31
0.0
  0
LINE
  5
DB
  8
0
  6
CONTINUOUS
 62
     7
 10
100.72498
 20
92.931899999999999
 30
0.0
 11
101.72498
 21
92.931899999999999
 31
0.0
  0
LINE
  5
DC
  8
0
  6
CONTINUOUS
 62
     7
 10
100.72498
 20
86.931899999999985
 30
0.0
 11
101.72498
 21
86.931899999999985
 31
0.0
  0
LINE
  5
DD
  8
0
  6
CONTINUOUS
 62
     7
 10
100.72498
 20
92.931899999999999
 30
0.0
 11
100.72498
 21
86.931899999999985
 31
0.0
  0
LINE
  5
DE
  8
0
  6
CONTINUOUS
 62
     7
 10
101.72498
 20
93.681899999999999
 30
0.0
 11
103.22498
 21
93.681899999999999
 31
0.0
  0
LINE
  5
DF
  8
0
  6
CONTINUOUS
 62
     7
 10
101.72498
 20
86.181899999999999
 30
0.0
 11
103.22498
 21
86.181899999999999
 31
0.0
  0
LINE
  5
E0
  8
0
  6
CONTINUOUS
 62
     7
 10
101.72498
 20
93.681899999999999
 30
0.0
 11
101.72498
 21
86.181899999999999
 31
0.0
  0
LINE
  5
E1
  8
0
  6
CONTINUOUS
 62
     7
 10
-16.0
 20
22.0
 30
0.0
 11
-16.0
 21
6.1999969000000004
 31
0.0
  0
CIRCLE
  5
E2
  8
0
  6
CONTINUOUS
 62
     7
 10
116.52498
 20
70.931899999999985
 30
0.0
 40
2.5
  0
CIRCLE
  5
E3
  8
0
  6
CONTINUOUS
 62
     7
 10
116.52498
 20
70.931899999999985
 30
0.0
 40
2.1500001000000002
  0
CIRCLE
  5
E4
  8
0
  6
CONTINUOUS
 62
     7
 10
71.524993999999992
 20
89.931899999999999
 30
0.0
 40
3.75
  0
CIRCLE
  5
E5
  8
0
  6
CONTINUOUS
 62
     7
 10
71.524993999999992
 20
89.931899999999999
 30
0.0
 40
2.25
  0
ARC
  5
E6
  8
0
  6
CONTINUOUS
 62
     7
 10
7.3005065999999994
 20
9.5879974000000008
 30
0.0
 40
1.5599999
 50
97.595029000000011
 51
172.40496999999999
  0
ARC
  5
E7
  8
0
  6
CONTINUOUS
 62
     7
 10
-7.3004761
 20
9.5879974000000008
 30
0.0
 40
1.5599999
 50
7.5950285999999991
 51
82.404968999999994
  0
ARC
  5
E8
  8
0
  6
CONTINUOUS
 62
     7
 10
7.3005065999999994
 20
14.813003999999999
 30
0.0
 40
1.5599999
 50
188.06788
 51
261.93212
  0
ARC
  5
E9
  8
0
  6
CONTINUOUS
 62
     7
 10
-7.3004761
 20
14.813003999999999
 30
0.0
 40
1.5599999
 50
278.06788999999998
 51
351.93212000000011
  0
ARC
  5
EA
  8
0
  6
CONTINUOUS
 62
     7
 10
-18.611145
 20
11.0
 30
0.0
 40
2.0
 50
10.000000999999999
 51
90.000003000000007
  0
ARC
  5
EB
  8
0
  6
CONTINUOUS
 62
     7
 10
18.591156000000002
 20
11.0
 30
0.0
 40
2.0
 50
90.000003000000007
 51
169.99999
  0
ARC
  5
EC
  8
0
  6
CONTINUOUS
 62
     7
 10
116.52498
 20
9.1612854000000006
 30
0.0
 40
1.4521623999999991
 50
190.00001
 51
350.0
  0
ARC
  5
ED
  8
0
  6
CONTINUOUS
 62
     7
 10
112.19998
 20
11.048935
 30
0.0
 40
2.479350999999999
 50
9.7705634000000003
 51
51.899065999999998
  0
ARC
  5
EE
  8
0
  6
CONTINUOUS
 62
     7
 10
120.84999000000001
 20
11.048935
 30
0.0
 40
2.479350999999999
 50
128.10094000000001
 51
169.99999
  0
ARC
  5
EF
  8
0
  6
CONTINUOUS
 62
     7
 10
150.84998999999999
 20
11.048935
 30
0.0
 40
2.479350999999999
 50
128.10094000000001
 51
169.99999
  0
ARC
  5
F0
  8
0
  6
CONTINUOUS
 62
     7
 10
142.19998000000001
 20
11.048935
 30
0.0
 40
2.479350999999999
 50
9.9999996999999983
 51
51.899065999999998
  0
ARC
  5
F1
  8
0
  6
CONTINUOUS
 62
     7
 10
146.52498
 20
9.1612854000000006
 30
0.0
 40
1.4521623999999991
 50
190.00001
 51
350.0
  0
CIRCLE
  5
F2
  8
0
  6
PHANTOM
 62
     7
 10
-12.5
 20
21.5
 30
0.0
 40
0.82499999
  0
ARC
  5
F3
  8
0
  6
CONTINUOUS
 62
     7
 10
21.989989999999999
 20
14.0
 30
0.0
 40
1.0
 50
270.0
 51
0.0
  0
ARC
  5
F4
  8
0
  6
CONTINUOUS
 62
     7
 10
100.72498
 20
19.699997
 30
0.0
 40
3.0
 50
89.999981999999974
 51
269.99995000000001
  0
CIRCLE
  5
F5
  8
0
  6
CONTINUOUS
 62
     7
 10
0.0
 20
19.699997
 30
0.0
 40
3.0
  0
CIRCLE
  5
F6
  8
0
  6
CONTINUOUS
 62
     7
 10
0.0
 20
19.699997
 30
0.0
 40
3.75
  0
ARC
  5
F7
  8
0
  6
CONTINUOUS
 62
     7
 10
-21.989989999999999
 20
14.0
 30
0.0
 40
1.0
 50
179.99999
 51
270.0
  0
ARC
  5
F8
  8
0
  6
CONTINUOUS
 62
     7
 10
100.72498
 20
89.931899999999999
 30
0.0
 40
3.0
 50
89.999981999999974
 51
269.99995000000001
  0
TEXT
  5
F9
  8
0
  6
CONTINUOUS
 62
     7
 10
-1.2855000000000001
 20
-11.800000000000001
 30
0.0
 40
3.5999998999999989
  1
‚g‚r‚q‚P‚T‚`
 41
0.84738018
  0
ENDSEC
  0
EOF
